<?xml version="1.0" standalone="no"?>
<!DOCTYPE svg PUBLIC "-//W3C//DTD SVG 20010904//EN"
 "http://www.w3.org/TR/2001/REC-SVG-20010904/DTD/svg10.dtd">
<svg version="1.0" xmlns="http://www.w3.org/2000/svg"
 width="856.000000pt" height="856.000000pt" viewBox="0 0 856.000000 856.000000"
 preserveAspectRatio="xMidYMid meet">

<g transform="translate(0.000000,856.000000) scale(0.100000,-0.100000)"
fill="#000000" stroke="none">
<path d="M320 8549 c-201 -40 -343 -241 -311 -440 28 -174 160 -304 336 -329
40 -5 303 -10 605 -10 l536 0 443 -2322 c244 -1278 452 -2357 463 -2398 65
-252 245 -503 466 -648 104 -68 205 -113 341 -151 l96 -26 1885 0 1885 0 97
27 c385 106 669 375 787 743 20 60 128 630 321 1695 323 1772 308 1665 251
1786 -58 124 -167 205 -302 224 -38 6 -1208 10 -2899 10 l-2836 0 -143 753
c-78 413 -151 781 -161 817 -33 112 -120 205 -237 252 l-58 23 -760 2 c-418 0
-780 -3 -805 -8z m7375 -2651 c-3 -13 -113 -617 -244 -1342 -197 -1083 -245
-1328 -266 -1371 -30 -63 -98 -128 -163 -158 l-47 -22 -1790 0 c-1740 0 -1791
1 -1840 19 -62 24 -139 96 -171 157 -16 32 -41 138 -78 331 -134 692 -456
2385 -456 2396 0 9 592 12 2530 12 l2530 0 -5 -22z"/>
<path d="M3041 1499 c-258 -67 -466 -275 -538 -539 -28 -102 -25 -312 5 -410
67 -213 205 -380 387 -469 118 -59 189 -75 330 -75 132 -1 215 18 325 74 279
141 451 462 410 768 -25 190 -93 328 -230 464 -73 72 -102 93 -181 131 -52 25
-126 52 -166 61 -99 22 -249 20 -342 -5z m207 -736 c2 -9 -7 -13 -27 -13 -30
0 -39 9 -24 24 11 10 46 3 51 -11z"/>
<path d="M6931 1501 c-267 -68 -481 -289 -547 -569 -22 -91 -22 -257 0 -347
41 -163 154 -339 279 -432 139 -103 274 -148 447 -147 136 0 206 16 330 77 69
34 103 59 181 137 87 85 102 106 147 200 68 140 86 229 80 379 -9 197 -80 361
-218 501 -86 88 -180 147 -295 186 -107 37 -291 43 -404 15z m207 -738 c2 -9
-7 -13 -27 -13 -30 0 -39 9 -24 24 11 10 46 3 51 -11z"/>
</g>
</svg>
